<svg width="107" height="30" viewBox="0 0 107 30" fill="none" xmlns="http://www.w3.org/2000/svg">
<path d="M55.2008 4.82227C49.9938 4.82227 45.7727 9.04337 45.7727 14.2502C45.7727 19.4571 49.9938 23.6782 55.2008 23.6782C60.4077 23.6782 64.6288 19.4571 64.6288 14.2502C64.6275 9.04337 60.4064 4.82227 55.2008 4.82227ZM55.2008 19.5289C52.2847 19.5289 49.9207 17.165 49.9207 14.2502C49.9207 11.3342 52.2847 8.9702 55.2008 8.9702C58.1169 8.9702 60.4809 11.3342 60.4809 14.2502C60.4795 17.165 58.1155 19.5289 55.2008 19.5289Z" fill="#0061A2"/>
<path d="M75.9698 4.8224C73.8679 4.8224 71.927 5.51151 70.3598 6.67421V3.86723C70.3598 1.73207 69.4645 0 68.3603 0C67.2562 0 66.3608 1.73207 66.3608 3.86723V20.0692C66.3608 22.2057 67.2562 23.665 68.3603 23.665C69.1199 23.665 69.7811 22.8456 70.119 21.639C71.7274 22.9134 73.7588 23.677 75.9698 23.677C81.1767 23.677 85.3979 19.4559 85.3979 14.249C85.3979 9.0435 81.1767 4.8224 75.9698 4.8224ZM75.9698 19.5291C73.0537 19.5291 70.6897 17.1651 70.6897 14.2504C70.6897 11.3343 73.0537 8.97033 75.9698 8.97033C78.8859 8.97033 81.2499 11.3343 81.2499 14.2504C81.2499 17.1651 78.8859 19.5291 75.9698 19.5291Z" fill="#0061A2"/>
<path d="M104.154 4.82227C103.303 4.82227 102.577 5.50073 102.288 6.67407C100.702 5.46348 98.7227 4.82227 96.5728 4.82227C91.3659 4.82227 87.1448 9.04337 87.1448 14.2502C87.1448 19.4571 91.3659 23.6782 96.5728 23.6782C98.7094 23.6782 100.68 22.8388 102.261 21.6401C102.53 22.872 103.275 23.6662 104.154 23.6662C105.259 23.6662 106.154 21.7985 106.154 20.0704V8.5405C106.154 6.81375 105.259 4.82227 104.154 4.82227ZM96.5742 19.5289C93.6581 19.5289 91.2941 17.165 91.2941 14.2502C91.2941 11.3342 93.6581 8.9702 96.5742 8.9702C99.4903 8.9702 101.854 11.3342 101.854 14.2502C101.853 17.165 99.4889 19.5289 96.5742 19.5289Z" fill="#0061A2"/>
<path d="M21.0232 2.21387H3.99095C3.99095 2.21387 0.438965 2.21387 0.438965 5.77779V22.7846C0.438965 22.7846 0.438965 26.3485 3.99095 26.3485H21.0219C21.0219 26.3485 24.5738 26.3485 24.5738 22.7846V5.77779C24.5738 5.77779 24.5738 2.21387 21.0232 2.21387ZM22.0462 20.0694C22.0462 21.7961 21.1509 23.6652 20.0467 23.6652C19.1687 23.6652 18.4224 22.871 18.1537 21.6392C16.5719 22.8378 14.603 23.6772 12.4652 23.6772C7.25825 23.6772 3.0371 19.5359 3.0371 14.3291C3.0371 9.12221 7.25825 4.82262 12.4652 4.82262C14.6137 4.82262 16.5945 5.46383 18.1803 6.67442C18.469 5.50241 19.1953 4.82262 20.0467 4.82262C21.1509 4.82262 22.0462 6.81411 22.0462 8.54086V20.0694Z" fill="#0061A2"/>
<path d="M12.4651 19.6089C15.3813 19.6089 17.7452 17.2449 17.7452 14.3289C17.7452 11.4128 15.3813 9.04883 12.4651 9.04883C9.54903 9.04883 7.18506 11.4128 7.18506 14.3289C7.18506 17.2449 9.54903 19.6089 12.4651 19.6089Z" fill="#0061A2"/>
<path d="M12.4652 16.7805C13.8193 16.7805 14.917 15.6828 14.917 14.3287C14.917 12.9747 13.8193 11.877 12.4652 11.877C11.1111 11.877 10.0134 12.9747 10.0134 14.3287C10.0134 15.6828 11.1111 16.7805 12.4652 16.7805Z" fill="#FDB933"/>
<path d="M41.9308 4.82227C40.7574 4.82227 39.8076 5.75881 39.8076 6.97472V12.3771C39.8076 15.0325 37.7243 17.1929 35.1634 17.1929C32.6025 17.1929 30.5179 15.0325 30.5179 12.3771V6.97472C30.5179 5.75881 29.5667 4.82227 28.3933 4.82227C27.22 4.82227 26.2688 5.75881 26.2688 6.97472V12.3771C26.2688 16.7845 29.2687 20.4788 33.261 21.3834V28.0044C33.261 29.1059 34.1111 29.9999 35.1607 29.9999C36.209 29.9999 37.0604 29.1072 37.0604 28.0044V21.3834C41.0541 20.4788 44.0527 16.7845 44.0527 12.3771V6.97472C44.0553 5.75748 43.1028 4.82227 41.9308 4.82227Z" fill="#0061A2"/>
</svg>
