<svg width="33" height="34" viewBox="0 0 33 34" fill="none" xmlns="http://www.w3.org/2000/svg">
<path d="M15.125 5.875H5.5C4.77065 5.875 4.07118 6.16473 3.55546 6.68046C3.03973 7.19618 2.75 7.89565 2.75 8.625V27.875C2.75 28.6043 3.03973 29.3038 3.55546 29.8195C4.07118 30.3353 4.77065 30.625 5.5 30.625H24.75C25.4793 30.625 26.1788 30.3353 26.6945 29.8195C27.2103 29.3038 27.5 28.6043 27.5 27.875V18.25" stroke="#2286FC" stroke-width="2.7" stroke-linecap="round" stroke-linejoin="round"/>
<path d="M25.4375 3.8133C25.9845 3.26629 26.7264 2.95898 27.5 2.95898C28.2736 2.95898 29.0155 3.26629 29.5625 3.8133C30.1095 4.36031 30.4168 5.10221 30.4168 5.8758C30.4168 6.64939 30.1095 7.39129 29.5625 7.9383L16.5 21.0008L11 22.3758L12.375 16.8758L25.4375 3.8133Z" stroke="#2286FC" stroke-width="2.7" stroke-linecap="round" stroke-linejoin="round"/>
</svg>
