<svg width="49" height="50" viewBox="0 0 49 50" fill="none" xmlns="http://www.w3.org/2000/svg">
<rect x="0.383789" y="0.414551" width="48.6167" height="48.6167" rx="8.419" fill="#3591FF"/>
<g clip-path="url(#clip0_797_125959)">
<path d="M34.8464 22.3378C34.4658 22.3378 34.1007 22.489 33.8316 22.7582C33.5625 23.0273 33.4112 23.3924 33.4112 23.773V34.0775C33.4112 34.4581 33.26 34.8231 32.9909 35.0923C32.7218 35.3614 32.3567 35.5126 31.9761 35.5126H16.1893C15.8087 35.5126 15.4436 35.3614 15.1745 35.0923C14.9053 34.8231 14.7541 34.4581 14.7541 34.0775V18.2907C14.7541 17.91 14.9053 17.545 15.1745 17.2759C15.4436 17.0067 15.8087 16.8555 16.1893 16.8555H26.4938C26.8744 16.8555 27.2394 16.7043 27.5086 16.4352C27.7777 16.166 27.9289 15.801 27.9289 15.4203C27.9289 15.0397 27.7777 14.6747 27.5086 14.4055C27.2394 14.1364 26.8744 13.9852 26.4938 13.9852H16.1893C15.0474 13.9852 13.9523 14.4388 13.1448 15.2462C12.3374 16.0537 11.8838 17.1488 11.8838 18.2907V34.0775C11.8838 35.2194 12.3374 36.3145 13.1448 37.1219C13.9523 37.9294 15.0474 38.383 16.1893 38.383H31.9761C33.118 38.383 34.2131 37.9294 35.0205 37.1219C35.828 36.3145 36.2816 35.2194 36.2816 34.0775V23.773C36.2816 23.3924 36.1304 23.0273 35.8612 22.7582C35.5921 22.489 35.227 22.3378 34.8464 22.3378ZM40.4723 10.5695C40.3266 10.2188 40.0479 9.94013 39.6973 9.7945C39.5247 9.72096 39.3394 9.68196 39.1519 9.67969H30.5409C30.1603 9.67969 29.7952 9.83089 29.5261 10.1C29.257 10.3692 29.1058 10.7342 29.1058 11.1149C29.1058 11.4955 29.257 11.8605 29.5261 12.1297C29.7952 12.3988 30.1603 12.55 30.5409 12.55H35.6932L20.911 27.3179C20.7765 27.4513 20.6697 27.61 20.5968 27.7849C20.524 27.9598 20.4865 28.1474 20.4865 28.3368C20.4865 28.5263 20.524 28.7139 20.5968 28.8887C20.6697 29.0636 20.7765 29.2224 20.911 29.3558C21.0444 29.4903 21.2031 29.5971 21.378 29.6699C21.5529 29.7428 21.7405 29.7803 21.9299 29.7803C22.1194 29.7803 22.307 29.7428 22.4819 29.6699C22.6568 29.5971 22.8155 29.4903 22.9489 29.3558L37.7167 14.5736V19.7258C37.7167 20.1065 37.8679 20.4715 38.1371 20.7406C38.4062 21.0098 38.7713 21.161 39.1519 21.161C39.5325 21.161 39.8976 21.0098 40.1667 20.7406C40.4359 20.4715 40.5871 20.1065 40.5871 19.7258V11.1149C40.5848 10.9273 40.5458 10.742 40.4723 10.5695Z" fill="white"/>
</g>
<defs>
<clipPath id="clip0_797_125959">
<rect width="31.7786" height="31.7786" fill="white" transform="translate(8.80273 8.8335)"/>
</clipPath>
</defs>
</svg>
