<svg width="33" height="34" viewBox="0 0 33 34" fill="none" xmlns="http://www.w3.org/2000/svg">
<path d="M19.2021 3.6543H8.39413C7.67752 3.6543 6.99026 3.93897 6.48353 4.44569C5.97681 4.95241 5.69214 5.63968 5.69214 6.35629V27.9722C5.69214 28.6889 5.97681 29.3761 6.48353 29.8828C6.99026 30.3896 7.67752 30.6742 8.39413 30.6742H24.6061C25.3227 30.6742 26.01 30.3896 26.5167 29.8828C27.0234 29.3761 27.3081 28.6889 27.3081 27.9722V11.7603L19.2021 3.6543Z" stroke="#2286FC" stroke-width="2.70199" stroke-linecap="round" stroke-linejoin="round"/>
<path d="M19.2021 3.6543V11.7603H27.3081" stroke="#2286FC" stroke-width="2.70199" stroke-linecap="round" stroke-linejoin="round"/>
<path d="M21.9039 18.5156H11.0959" stroke="#2286FC" stroke-width="2.70199" stroke-linecap="round" stroke-linejoin="round"/>
<path d="M21.9039 23.9199H11.0959" stroke="#2286FC" stroke-width="2.70199" stroke-linecap="round" stroke-linejoin="round"/>
<path d="M13.7982 13.1113H12.4472H11.0962" stroke="#2286FC" stroke-width="2.70199" stroke-linecap="round" stroke-linejoin="round"/>
</svg>
