<svg width="33" height="29" viewBox="0 0 33 29" fill="none" xmlns="http://www.w3.org/2000/svg">
<path d="M28.6549 4.29048C27.9526 3.58786 27.1188 3.03049 26.201 2.65022C25.2833 2.26995 24.2996 2.07422 23.3062 2.07422C22.3128 2.07422 21.3291 2.26995 20.4113 2.65022C19.4935 3.03049 18.6597 3.58786 17.9574 4.29048L16.4999 5.74798L15.0424 4.29048C13.6238 2.8719 11.6998 2.07495 9.69367 2.07495C7.6875 2.07495 5.7635 2.8719 4.34492 4.29048C2.92634 5.70906 2.12939 7.63306 2.12939 9.63923C2.12939 11.6454 2.92634 13.5694 4.34492 14.988L5.80242 16.4455L16.4999 27.143L27.1974 16.4455L28.6549 14.988C29.3575 14.2857 29.9149 13.4518 30.2952 12.5341C30.6754 11.6163 30.8712 10.6326 30.8712 9.63923C30.8712 8.64581 30.6754 7.66212 30.2952 6.74437C29.9149 5.82661 29.3575 4.99277 28.6549 4.29048Z" stroke="#2286FC" stroke-width="2.75" stroke-linecap="round" stroke-linejoin="round"/>
</svg>
