<svg width="102" height="34" viewBox="0 0 102 34" fill="none" xmlns="http://www.w3.org/2000/svg">
<path d="M24.0684 33.4125C25.9513 33.4125 27.4776 31.8841 27.4776 29.9988C27.4776 28.1134 25.9513 26.585 24.0684 26.585C22.1855 26.585 20.6592 28.1134 20.6592 29.9988C20.6592 31.8841 22.1855 33.4125 24.0684 33.4125Z" fill="#F95A21"/>
<path d="M34.0049 1.6528C32.2129 0.252266 28.7891 -0.637655 25.5693 3.70983L14.6423 21.2894L11.3641 26.8186L13.4621 21.7271L12.588 13.6157C12.5588 12.8133 12.1509 12.0547 11.4224 11.6024L11.0436 11.3544C9.87808 10.6249 8.33372 10.9751 7.60526 12.1422L0.466276 25.5639C-0.262191 26.731 -0.0290818 28.4088 0.670247 29.0069C1.70467 29.8822 3.08876 29.6342 3.81723 28.4671L6.81851 23.6674L6.33772 19.3199L7.61983 24.178L9.54298 31.2828C9.89264 32.5228 10.9271 33.6024 12.2674 33.4419C12.9376 33.369 13.5058 33.0188 13.8992 32.5374C13.9721 32.4645 29.7215 14.0971 34.5294 7.59046C35.6221 6.11699 35.593 2.89285 34.0049 1.6528Z" fill="#F95A21"/>
<path d="M44.2614 27.0514V33.4997H41.7409V27.0514C41.7409 26.8326 41.7118 26.6284 41.6681 26.4241C41.5807 26.0594 41.435 25.7093 41.2164 25.4175C40.7065 24.7026 39.8761 24.2358 38.9291 24.2358C37.9966 24.2358 37.1516 24.7026 36.6417 25.4175C36.4231 25.7093 36.2774 26.0594 36.19 26.4241C36.1463 26.6284 36.1172 26.8326 36.1172 27.0514V33.4997H33.5967V27.0514C33.5967 26.8326 33.6112 26.6284 33.6258 26.4241C33.6695 26.074 33.7424 25.7384 33.8444 25.4175C33.9755 24.9944 34.1649 24.6005 34.3834 24.2358C35.3159 22.7185 36.9913 21.7119 38.9145 21.7119C40.386 21.7119 41.7118 22.3101 42.6734 23.2729C42.9648 23.5647 43.2124 23.8857 43.431 24.2358C43.6641 24.6005 43.8389 24.9944 43.9701 25.4175C44.072 25.7384 44.1449 26.074 44.1886 26.4241C44.2469 26.6284 44.2614 26.8472 44.2614 27.0514Z" fill="#2A2B34"/>
<path d="M56.543 26.4241C56.4993 26.074 56.4265 25.7384 56.3245 25.4175C56.1933 24.9944 56.0039 24.6005 55.7854 24.2358C55.5669 23.8857 55.3192 23.5647 55.0278 23.2729C54.7364 22.9811 54.4159 22.7331 54.0662 22.5143C53.2503 22.0037 52.2888 21.7119 51.2543 21.7119C50.2199 21.7119 49.2583 22.0037 48.4425 22.5143C47.7431 22.952 47.1604 23.5355 46.7233 24.2358C46.4902 24.6005 46.3153 24.9944 46.1842 25.4175C46.0822 25.7384 46.0094 26.074 45.9657 26.4241C45.9365 26.6284 45.9365 26.8326 45.9365 27.0514V28.1602C45.9365 28.379 45.9511 28.5979 45.9802 28.8167C46.0239 29.1668 46.0968 29.5024 46.1988 29.8233C46.5921 31.0196 47.3935 32.0408 48.457 32.6827C49.2729 33.1933 50.2345 33.4851 51.2689 33.4851C52.3033 33.4851 53.2649 33.1933 54.0808 32.6827C55.1298 32.0262 55.9457 31.0196 56.339 29.8233H53.6291C53.1192 30.5674 52.2742 31.0488 51.298 31.0488C50.3365 31.0488 49.4769 30.5674 48.967 29.8233C48.763 29.517 48.6173 29.1814 48.5299 28.8167H56.5576C56.5867 28.5979 56.6013 28.379 56.6013 28.1602V27.0514C56.5867 26.8472 56.5722 26.6284 56.543 26.4241ZM48.5299 26.4241C48.6173 26.0594 48.7775 25.7093 48.9815 25.4175C49.1855 25.1257 49.4477 24.8777 49.7391 24.688C49.7683 24.6735 49.7828 24.6589 49.812 24.6443C49.8411 24.6297 49.8848 24.6005 49.914 24.5859C49.9431 24.5713 49.9577 24.5567 49.9868 24.5422C50.0159 24.5276 50.0451 24.513 50.0597 24.4984C50.0888 24.4838 50.1034 24.4838 50.1325 24.4692C50.453 24.3233 50.7881 24.2504 51.1524 24.2358C51.1815 24.2358 51.2106 24.2358 51.2398 24.2358C51.3418 24.2358 51.4437 24.2358 51.5312 24.2504C51.5603 24.2504 51.5894 24.2504 51.6186 24.265C51.6331 24.265 51.6477 24.265 51.6769 24.2796C51.7206 24.2796 51.7643 24.2941 51.8225 24.3087C51.8517 24.3087 51.8808 24.3233 51.91 24.3233C52.4199 24.44 52.8861 24.7026 53.2503 25.0674C53.3523 25.1695 53.4543 25.2862 53.5417 25.4175C53.7603 25.7093 53.9205 26.0594 54.0079 26.4241H48.5299Z" fill="#2A2B34"/>
<path d="M82.2442 28.1023C82.2442 28.3503 82.2733 28.5984 82.3316 28.8172C82.419 29.1819 82.5939 29.532 82.8124 29.8238C83.3078 30.4949 84.08 30.9472 84.9687 30.9618C84.9978 30.9618 85.027 30.9618 85.0561 30.9618V33.4856C82.6959 33.4856 80.6999 31.9538 80.0005 29.8238C79.8985 29.5029 79.8111 29.1673 79.782 28.8172C79.7528 28.5984 79.7383 28.3795 79.7383 28.1607V18.4883H82.2588V21.7124H85.0707V24.2363H82.2588V28.1023H82.2442Z" fill="#2A2B34"/>
<path d="M88.7853 28.1023C88.7853 28.3503 88.8144 28.5984 88.8727 28.8172C88.9601 29.1819 89.135 29.532 89.3535 29.8238C89.4118 29.9114 89.4846 29.9989 89.5575 30.0718C90.0528 30.597 90.7376 30.9472 91.5098 30.9618C91.5389 30.9618 91.5681 30.9618 91.5972 30.9618V33.4856C90.2568 33.4856 89.033 32.9896 88.1005 32.1726C87.4595 31.6037 86.9496 30.9034 86.6436 30.0864C86.6145 29.9989 86.5853 29.9114 86.5562 29.8238C86.4542 29.5029 86.3668 29.1673 86.3377 28.8172C86.3085 28.5984 86.2939 28.3795 86.2939 28.1607V18.4883H88.8144V21.7124H91.6263V24.2363H88.8144V28.1023H88.7853Z" fill="#2A2B34"/>
<path d="M99.4794 25.4175V25.3008C99.4794 24.7173 99.0132 24.2504 98.4304 24.2504H96.2596V24.265C95.7497 24.338 95.3563 24.7756 95.3563 25.3008C95.3563 25.3446 95.3563 25.3884 95.3563 25.4175C95.4146 25.8844 95.7788 26.2637 96.245 26.3366C96.2887 26.3366 96.347 26.3512 96.3907 26.3512H98.4013C98.6635 26.3512 98.9112 26.3804 99.1443 26.4242C100.397 26.6868 101.403 27.6205 101.796 28.8167C101.898 29.1377 101.956 29.4732 101.971 29.8234C101.971 29.8526 101.971 29.8817 101.971 29.9109C101.971 31.8804 100.368 33.4852 98.4013 33.4852H96.3907C95.4583 33.4852 94.5987 33.1205 93.9576 32.5223C93.3166 31.9388 92.9086 31.1072 92.8212 30.2027C92.8066 30.1006 92.8066 30.013 92.8066 29.9109V29.8234H95.3271V29.9109C95.3271 30.1881 95.4437 30.4507 95.6185 30.6404C95.8079 30.8446 96.0847 30.9613 96.3761 30.9613H98.3867C98.9695 30.9613 99.4357 30.4945 99.4357 29.9109C99.4357 29.8817 99.4357 29.8526 99.4357 29.8234C99.392 29.2836 98.9403 28.8605 98.3867 28.8605H96.3761C96.3179 28.8605 96.245 28.8605 96.1867 28.8605C96.0556 28.8605 95.9245 28.8459 95.8079 28.8167C94.9775 28.6854 94.249 28.2624 93.7245 27.6642C93.404 27.3141 93.1563 26.891 93.0106 26.4242C92.9086 26.1032 92.8358 25.7677 92.8212 25.4175C92.8212 25.3738 92.8212 25.33 92.8212 25.3008C92.8212 24.9361 92.8795 24.586 92.9815 24.2504C93.1272 23.7544 93.3894 23.3022 93.7245 22.9228C94.351 22.2226 95.2397 21.7703 96.245 21.7266C96.2887 21.7266 96.347 21.7266 96.3907 21.7266H98.4013C100.004 21.7266 101.359 22.7915 101.81 24.2504C101.912 24.586 101.971 24.9361 101.971 25.3008V25.4175H99.4794Z" fill="#2A2B34"/>
<path d="M73.8081 21.7266V28.9772C73.8081 31.4719 71.783 33.4998 69.2916 33.4998C68.0095 33.4998 66.8585 32.96 66.0281 32.1138C65.2122 32.9746 64.0466 33.4998 62.7645 33.4998C60.2732 33.4998 58.248 31.4719 58.248 28.9772V21.7266H60.7685V28.9772C60.7685 29.5316 60.9871 30.0276 61.3513 30.3923C61.7156 30.7571 62.2109 30.9759 62.7645 30.9759C63.8718 30.9759 64.7605 30.086 64.7605 28.9772V21.7266H67.281V28.9772C67.281 29.5316 67.4996 30.0276 67.8638 30.3923C68.2281 30.7571 68.7234 30.9759 69.277 30.9759C70.3843 30.9759 71.273 30.086 71.273 28.9772V21.7266H73.8081Z" fill="#2A2B34"/>
<path d="M78.0332 21.7266H75.5127V33.4998H78.0332V21.7266Z" fill="#2A2B34"/>
<path d="M78.0041 17.2627H75.5127V19.699H78.0041V17.2627Z" fill="#2A2B34"/>
</svg>
