<svg width="51" height="51" viewBox="0 0 51 51" fill="none" xmlns="http://www.w3.org/2000/svg">
<path d="M17.385 38.1518L12.3795 43.1573C11.5428 43.994 10.408 44.4641 9.22471 44.4641C8.04144 44.4641 6.90663 43.994 6.06993 43.1573C5.23324 42.3206 4.76318 41.1858 4.76318 40.0026C4.76318 38.8193 5.23324 37.6845 6.06993 36.8478L20.6029 22.3148C19.5454 19.9778 19.2252 17.3739 19.685 14.8503C20.1448 12.3267 21.3628 10.0031 23.1766 8.18922C24.9905 6.37537 27.3141 5.15737 29.8377 4.69756V4.69756C33.4701 4.03573 34.5131 8.40465 31.9023 11.0154L29.3942 13.5235L29.3732 13.5445C28.9879 13.9377 28.772 14.4662 28.772 15.0167C28.772 15.5673 28.9879 16.0958 29.3732 16.489L32.7383 19.8541C33.1315 20.2394 33.66 20.4553 34.2105 20.4553C34.761 20.4553 35.2896 20.2394 35.6828 19.8541L38.2119 17.325C40.8226 14.7142 45.1915 15.7572 44.5297 19.3896V19.3896C44.0699 21.9132 42.8519 24.2368 41.0381 26.0506C39.2242 27.8645 36.9006 29.0825 34.377 29.5423C31.8534 30.0021 29.2495 29.6819 26.9125 28.6243L23.2792 32.2576" stroke="#2286FC" stroke-width="3.15478" stroke-linecap="round" stroke-linejoin="round"/>
</svg>
