<svg width="182" height="24" viewBox="0 0 182 24" fill="none" xmlns="http://www.w3.org/2000/svg">
<path d="M7.32 17.72C3.56 17.72 1.42 15.72 1.42 11.92V3.2H4.68V11.72C4.68 14.1 5.38 15.14 7.34 15.14C9.26 15.14 10.1 14.22 10.1 11.6V3.2H13.36V11.8C13.36 15.7 11.18 17.72 7.32 17.72ZM17.1252 17.5V3.2H20.8852L26.3252 12.62V3.2H29.2052V17.5H25.9652L20.0052 7.32V17.5H17.1252ZM33.1614 17.5V3.2H36.4214V17.5H33.1614ZM44.0053 17.5L39.2253 3.2H42.6453L46.0453 14.18L49.4453 3.2H52.4853L47.7253 17.5H44.0053ZM55.2088 17.5V3.2H64.5288V5.72H58.4288V9.06H63.3088V11.42H58.4288V14.98H64.8488V17.5H55.2088ZM67.9033 17.5V3.2H73.0233C76.4033 3.2 78.5433 4.58 78.5433 7.54V7.62C78.5433 9.78 77.2833 10.92 75.6033 11.42L79.3833 17.5H75.9433L72.5233 11.98H71.1233V17.5H67.9033ZM71.1233 9.78H72.9433C74.5633 9.78 75.3833 9.1 75.3833 7.72V7.64C75.3833 6.18 74.5033 5.68 72.9433 5.68H71.1233V9.78ZM86.9455 17.72C83.0255 17.72 81.2255 15.88 81.0455 13.02H84.1455C84.2855 14.3 84.8255 15.36 86.9455 15.36C88.3655 15.36 89.3055 14.58 89.3055 13.46C89.3055 12.32 88.7055 11.92 86.6055 11.6C82.9455 11.12 81.4455 10.02 81.4455 7.26C81.4455 4.82 83.4855 3 86.6455 3C89.8655 3 91.7455 4.44 92.0055 7.28H89.0255C88.8255 5.98 88.0655 5.38 86.6455 5.38C85.2255 5.38 84.5055 6.04 84.5055 7C84.5055 8.02 84.9655 8.5 87.1655 8.82C90.6255 9.26 92.4055 10.2 92.4055 13.16C92.4055 15.7 90.3255 17.72 86.9455 17.72ZM95.6184 17.5V3.2H98.8784V17.5H95.6184ZM105.642 17.5V5.72H101.782V3.2H112.762V5.72H108.902V17.5H105.642ZM113.05 17.5L117.75 3.2H121.97L126.61 17.5H123.23L122.25 14.32H117.07L116.09 17.5H113.05ZM119.67 5.84L117.77 12.02H121.55L119.67 5.84ZM129.364 17.5V3.2H134.484C137.864 3.2 140.004 4.58 140.004 7.54V7.62C140.004 9.78 138.744 10.92 137.064 11.42L140.844 17.5H137.404L133.984 11.98H132.584V17.5H129.364ZM132.584 9.78H134.404C136.024 9.78 136.844 9.1 136.844 7.72V7.64C136.844 6.18 135.964 5.68 134.404 5.68H132.584V9.78ZM143.682 17.5V3.2H146.942V17.5H143.682ZM149.786 17.5L154.486 3.2H158.706L163.346 17.5H159.966L158.986 14.32H153.806L152.826 17.5H149.786ZM156.406 5.84L154.506 12.02H158.286L156.406 5.84Z" fill="black"/>
<line x1="2" y1="21" x2="13" y2="21" stroke="black" stroke-width="3"/>
</svg>
