<svg width="33" height="34" viewBox="0 0 33 34" fill="none" xmlns="http://www.w3.org/2000/svg">
<path d="M22 6.45312H24.75C25.4793 6.45313 26.1788 6.74286 26.6945 7.25858C27.2103 7.77431 27.5 8.47378 27.5 9.20312V28.4531C27.5 29.1825 27.2103 29.8819 26.6945 30.3977C26.1788 30.9134 25.4793 31.2031 24.75 31.2031H8.25C7.52065 31.2031 6.82118 30.9134 6.30546 30.3977C5.78973 29.8819 5.5 29.1825 5.5 28.4531V9.20312C5.5 8.47378 5.78973 7.77431 6.30546 7.25858C6.82118 6.74286 7.52065 6.45313 8.25 6.45312H11" stroke="#2286FC" stroke-width="2.7" stroke-linecap="round" stroke-linejoin="round"/>
<path d="M20.625 3.70312H12.375C11.6156 3.70312 11 4.31873 11 5.07812V7.82812C11 8.58752 11.6156 9.20312 12.375 9.20312H20.625C21.3844 9.20312 22 8.58752 22 7.82812V5.07812C22 4.31873 21.3844 3.70312 20.625 3.70312Z" stroke="#2286FC" stroke-width="2.7" stroke-linecap="round" stroke-linejoin="round"/>
</svg>
